<svg width="20" height="16" viewBox="0 0 20 16" fill="none" xmlns="http://www.w3.org/2000/svg">
<path fill-rule="evenodd" clip-rule="evenodd" d="M20 2V4.54C20 5.23 19.66 5.91 19.06 6.24C18.43 6.58 18 7.24 18 8C18 8.76 18.43 9.42 19.06 9.76C19.66 10.09 20 10.77 20 11.46V14C20 15.1 19.1 16 18 16H2C0.9 16 0 15.1 0 14V11.46C0 10.77 0.34 10.09 0.94 9.76C1.57 9.43 2 8.76 2 8C2 7.24 1.58 6.58 0.95 6.23C0.34 5.91 0.01 5.23 0.01 4.54V2C0.01 0.89 0.9 0 2 0H18C19.1 0 20 0.9 20 2ZM9 13.5H11V11.5H9V13.5ZM11 9H9V7H11V9ZM9 4.5H11V2.5H9V4.5Z" fill="black"/>
</svg>
