<svg width="24" height="24" viewBox="0 0 24 24" fill="none" xmlns="http://www.w3.org/2000/svg">
<path d="M9 16C8.71667 16 8.47917 15.9042 8.2875 15.7125C8.09583 15.5208 8 15.2833 8 15V13C8.28333 13 8.52083 12.9042 8.7125 12.7125C8.90417 12.5208 9 12.2833 9 12C9 11.7167 8.90417 11.4792 8.7125 11.2875C8.52083 11.0958 8.28333 11 8 11V9C8 8.71667 8.09583 8.47917 8.2875 8.2875C8.47917 8.09583 8.71667 8 9 8H15C15.2833 8 15.5208 8.09583 15.7125 8.2875C15.9042 8.47917 16 8.71667 16 9V11C15.7167 11 15.4792 11.0958 15.2875 11.2875C15.0958 11.4792 15 11.7167 15 12C15 12.2833 15.0958 12.5208 15.2875 12.7125C15.4792 12.9042 15.7167 13 16 13V15C16 15.2833 15.9042 15.5208 15.7125 15.7125C15.5208 15.9042 15.2833 16 15 16H9ZM12 14.5C12.1333 14.5 12.25 14.45 12.35 14.35C12.45 14.25 12.5 14.1333 12.5 14C12.5 13.8667 12.45 13.75 12.35 13.65C12.25 13.55 12.1333 13.5 12 13.5C11.8667 13.5 11.75 13.55 11.65 13.65C11.55 13.75 11.5 13.8667 11.5 14C11.5 14.1333 11.55 14.25 11.65 14.35C11.75 14.45 11.8667 14.5 12 14.5ZM12 12.5C12.1333 12.5 12.25 12.45 12.35 12.35C12.45 12.25 12.5 12.1333 12.5 12C12.5 11.8667 12.45 11.75 12.35 11.65C12.25 11.55 12.1333 11.5 12 11.5C11.8667 11.5 11.75 11.55 11.65 11.65C11.55 11.75 11.5 11.8667 11.5 12C11.5 12.1333 11.55 12.25 11.65 12.35C11.75 12.45 11.8667 12.5 12 12.5ZM12 10.5C12.1333 10.5 12.25 10.45 12.35 10.35C12.45 10.25 12.5 10.1333 12.5 10C12.5 9.86667 12.45 9.75 12.35 9.65C12.25 9.55 12.1333 9.5 12 9.5C11.8667 9.5 11.75 9.55 11.65 9.65C11.55 9.75 11.5 9.86667 11.5 10C11.5 10.1333 11.55 10.25 11.65 10.35C11.75 10.45 11.8667 10.5 12 10.5ZM6.5 23C6.1 23 5.75 22.85 5.45 22.55C5.15 22.25 5 21.9 5 21.5V2.5C5 2.1 5.15 1.75 5.45 1.45C5.75 1.15 6.1 1 6.5 1H17.5C17.9 1 18.25 1.15 18.55 1.45C18.85 1.75 19 2.1 19 2.5V21.5C19 21.9 18.85 22.25 18.55 22.55C18.25 22.85 17.9 23 17.5 23H6.5ZM6.5 20.75V21.5H17.5V20.75H6.5ZM6.5 19.25H17.5V4.75H6.5V19.25ZM6.5 3.25H17.5V2.5H6.5V3.25Z" fill="black"/>
</svg>
