<svg width="24" height="24" viewBox="0 0 24 24" fill="none" xmlns="http://www.w3.org/2000/svg">
<path fill-rule="evenodd" clip-rule="evenodd" d="M15.1862 14.4716H15.9762L20.2162 18.7316C20.6262 19.1416 20.6262 19.8116 20.2162 20.2216C19.8062 20.6316 19.1362 20.6316 18.7262 20.2216L14.4762 15.9716V15.1816L14.2062 14.9016C12.8062 16.1016 10.8962 16.7216 8.86621 16.3816C6.08621 15.9116 3.86621 13.5916 3.52621 10.7916C3.00621 6.56157 6.56621 3.00157 10.7962 3.52157C13.5962 3.86157 15.9162 6.08157 16.3862 8.86157C16.7262 10.8916 16.1062 12.8016 14.9062 14.2016L15.1862 14.4716ZM5.47656 9.97168C5.47656 12.4617 7.48656 14.4717 9.97656 14.4717C12.4666 14.4717 14.4766 12.4617 14.4766 9.97168C14.4766 7.48168 12.4666 5.47168 9.97656 5.47168C7.48656 5.47168 5.47656 7.48168 5.47656 9.97168Z" fill="black"/>
</svg>
