<svg xmlns="http://www.w3.org/2000/svg" width="69.366" height="69.397" viewBox="0 0 69.366 69.397">
  <g id="Grupo_641" data-name="Grupo 641" transform="translate(0.5 0.5)">
    <path id="Trazado_975" data-name="Trazado 975" d="M3325.52,409.568c.228.944.5,2.134.78,3.538a2.763,2.763,0,0,1-2.948,3.295q-2.743-.234-5.385-.314a2.794,2.794,0,0,1-2.683-2.765V408.9a2.773,2.773,0,0,1,3.248-2.733,28.34,28.34,0,0,1,5.307,1.469A2.755,2.755,0,0,1,3325.52,409.568Zm-10.236,50.1v-4.487a2.769,2.769,0,0,1,2.641-2.764c1.943-.091,3.807-.23,5.577-.4a2.762,2.762,0,0,1,2.961,3.344q-.393,1.8-.874,3.6a2.941,2.941,0,0,1-1.789,1.983,28.333,28.333,0,0,1-5.267,1.454A2.774,2.774,0,0,1,3315.284,459.67Zm-13.546-.663c-.228-.944-.5-2.134-.781-3.538a2.763,2.763,0,0,1,2.948-3.295q2.743.234,5.385.314a2.794,2.794,0,0,1,2.683,2.765v4.418a2.773,2.773,0,0,1-3.247,2.732,28.314,28.314,0,0,1-5.307-1.469A2.756,2.756,0,0,1,3301.738,459.006Zm-2.951-29.234c.077-2.34.237-4.747.5-7.2a2.726,2.726,0,0,1,2.395-2.416c2.28-.266,4.752-.486,7.375-.622a2.772,2.772,0,0,1,2.917,2.767v6.085a4.244,4.244,0,0,1-4.244,4.244h-6.168A2.773,2.773,0,0,1,3298.787,429.772Zm-6.123,2.86h-4.418a2.773,2.773,0,0,1-2.733-3.247,28.326,28.326,0,0,1,1.469-5.307,2.754,2.754,0,0,1,1.927-1.681c.944-.228,2.134-.5,3.538-.78a2.762,2.762,0,0,1,3.294,2.948q-.234,2.743-.314,5.386A2.793,2.793,0,0,1,3292.664,432.632Zm2.833,5.952c.092,1.943.23,3.807.4,5.577a2.762,2.762,0,0,1-3.344,2.961q-1.8-.393-3.6-.874a2.941,2.941,0,0,1-1.983-1.79,28.326,28.326,0,0,1-1.454-5.267,2.773,2.773,0,0,1,2.733-3.249h4.487A2.769,2.769,0,0,1,3295.5,438.584Zm6.147-2.641h6.085a4.243,4.243,0,0,1,4.244,4.244v6.168a2.773,2.773,0,0,1-2.859,2.775c-2.34-.077-4.747-.237-7.2-.5a2.727,2.727,0,0,1-2.416-2.395c-.266-2.28-.486-4.752-.621-7.375A2.772,2.772,0,0,1,3301.645,435.943Zm13.64,10.329v-6.085a4.244,4.244,0,0,1,4.244-4.244h6.168a2.774,2.774,0,0,1,2.775,2.859c-.077,2.34-.237,4.747-.5,7.2a2.727,2.727,0,0,1-2.395,2.416c-2.28.266-4.752.486-7.375.621A2.772,2.772,0,0,1,3315.284,446.271Zm19.308-10.329h4.419a2.773,2.773,0,0,1,2.733,3.247,28.313,28.313,0,0,1-1.469,5.307,2.756,2.756,0,0,1-1.928,1.681c-.944.228-2.134.5-3.539.781a2.763,2.763,0,0,1-3.3-2.949q.233-2.742.314-5.385A2.794,2.794,0,0,1,3334.592,435.943Zm-2.833-5.952c-.091-1.944-.229-3.807-.4-5.577a2.762,2.762,0,0,1,3.345-2.961q1.8.393,3.6.874a2.941,2.941,0,0,1,1.983,1.789,28.33,28.33,0,0,1,1.454,5.267,2.773,2.773,0,0,1-2.732,3.249h-4.489A2.769,2.769,0,0,1,3331.759,429.991Zm-6.146,2.641h-6.085a4.244,4.244,0,0,1-4.244-4.244V422.22a2.773,2.773,0,0,1,2.86-2.775c2.34.077,4.747.237,7.2.5a2.728,2.728,0,0,1,2.417,2.395c.266,2.28.485,4.752.621,7.375A2.772,2.772,0,0,1,3325.613,432.632Zm-16.281-16.477c-1.943.092-3.807.23-5.577.4a2.763,2.763,0,0,1-2.961-3.345q.393-1.8.874-3.6a2.942,2.942,0,0,1,1.79-1.983,28.3,28.3,0,0,1,5.267-1.454,2.773,2.773,0,0,1,3.249,2.732v4.487A2.769,2.769,0,0,1,3309.333,416.155Zm-12.071-2.261q-.125.615-.24,1.227a3.421,3.421,0,0,1-2.748,2.74q-.611.111-1.186.221a1.335,1.335,0,0,1-1.268-2.176,28.783,28.783,0,0,1,3.265-3.29A1.334,1.334,0,0,1,3297.261,413.895Zm-4.025,36.76q.615.125,1.227.24a3.42,3.42,0,0,1,2.74,2.747q.11.611.22,1.186a1.335,1.335,0,0,1-2.176,1.268,28.8,28.8,0,0,1-3.29-3.265A1.334,1.334,0,0,1,3293.237,450.655Zm36.757,4.027q.125-.615.241-1.229a3.42,3.42,0,0,1,2.748-2.74q.612-.11,1.188-.221a1.335,1.335,0,0,1,1.268,2.176,28.762,28.762,0,0,1-3.269,3.293A1.334,1.334,0,0,1,3329.993,454.682Zm4.029-36.763q-.615-.125-1.228-.24a3.421,3.421,0,0,1-2.74-2.748q-.11-.611-.221-1.186a1.335,1.335,0,0,1,2.176-1.268,28.767,28.767,0,0,1,3.291,3.266A1.334,1.334,0,0,1,3334.022,417.92Z" transform="translate(-3279.447 -400.089)" fill="#333"/>
    <g id="Grupo_640" data-name="Grupo 640" transform="translate(0)">
      <g id="Grupo_639" data-name="Grupo 639">
        <path id="Trazado_976" data-name="Trazado 976" d="M3303.053,457.881a34.2,34.2,0,1,1,24.182-10.016A33.971,33.971,0,0,1,3303.053,457.881Zm0-66.945a32.747,32.747,0,1,0,23.156,9.591A32.532,32.532,0,0,0,3303.053,390.936Z" transform="translate(-3268.87 -389.484)" fill="#333" stroke="#313131" stroke-width="1"/>
      </g>
    </g>
  </g>
</svg>